<svg width="16" height="16" viewBox="0 0 16 16" fill="none" xmlns="http://www.w3.org/2000/svg">
<path d="M16 8C16 5.87827 15.1571 3.84344 13.6569 2.34315C12.1566 0.842855 10.1217 0 8 0C5.87827 0 3.84344 0.842855 2.34315 2.34315C0.842855 3.84344 0 5.87827 0 8C0 10.1217 0.842855 12.1566 2.34315 13.6569C3.84344 15.1571 5.87827 16 8 16C10.1217 16 12.1566 15.1571 13.6569 13.6569C15.1571 12.1566 16 10.1217 16 8ZM3.64687 7.64687L7.14687 4.14687C7.29063 4.00312 7.50625 3.9625 7.69063 4.0375C7.875 4.1125 8 4.29688 8 4.5V6.5H11C11.5531 6.5 12 6.94688 12 7.5V8.5C12 9.05313 11.5531 9.5 11 9.5H8V11.5C8 11.7031 7.87813 11.8844 7.69063 11.9625C7.50313 12.0406 7.2875 11.9969 7.14687 11.8531L3.64687 8.35312C3.45312 8.15937 3.45312 7.84062 3.64687 7.64687Z" fill="#63E6BE"/>
</svg>
