<svg width="16" height="16" viewBox="0 0 16 16" fill="none" xmlns="http://www.w3.org/2000/svg">
<path d="M0 8C0 10.1217 0.842855 12.1566 2.34315 13.6569C3.84344 15.1571 5.87827 16 8 16C10.1217 16 12.1566 15.1571 13.6569 13.6569C15.1571 12.1566 16 10.1217 16 8C16 5.87827 15.1571 3.84344 13.6569 2.34315C12.1566 0.842855 10.1217 0 8 0C5.87827 0 3.84344 0.842855 2.34315 2.34315C0.842855 3.84344 0 5.87827 0 8ZM12.3531 8.35312L8.85312 11.8531C8.70937 11.9969 8.49375 12.0375 8.30937 11.9625C8.125 11.8875 8 11.7031 8 11.5V9.5H5C4.44688 9.5 4 9.05313 4 8.5V7.5C4 6.94688 4.44688 6.5 5 6.5H8V4.5C8 4.29688 8.12187 4.11562 8.30937 4.0375C8.49687 3.95937 8.7125 4.00312 8.85312 4.14687L12.3531 7.64687C12.5469 7.84062 12.5469 8.15937 12.3531 8.35312Z" fill="#63E6BE"/>
</svg>
